<svg id="Layer_1" data-name="Layer 1" xmlns="http://www.w3.org/2000/svg" viewBox="0 0 128 128"><defs><style>.cls-1{fill:#d680b1;}.cls-2{fill:#ba2b7d;}.cls-3{fill:#88d4ac;}.cls-4{fill:#39b775;}.cls-5{fill:#89b6d9;}.cls-6{fill:#3a86bf;}</style></defs><title>appGrid</title><path class="cls-1" d="M70.66,79.54a28.32,28.32,0,1,0,33.13-16A28.32,28.32,0,0,0,70.66,79.54Z"/><path class="cls-2" d="M70.66,79.54a28.32,28.32,0,0,0,5.63,31.11A40.59,40.59,0,0,0,104,63.59l-0.22-.07A28.07,28.07,0,0,0,70.66,79.54Z"/><path class="cls-3" d="M67.55,62.32a28.32,28.32,0,1,0-30.4-20.75A28.32,28.32,0,0,0,67.55,62.32Z"/><path class="cls-4" d="M67.55,62.32A28.32,28.32,0,0,0,91.72,41.94a40.59,40.59,0,0,0-54.62-.59c0,0.07,0,.15.05,0.22A28.07,28.07,0,0,0,67.55,62.32Z"/><path class="cls-5" d="M54.38,73.71A28.32,28.32,0,1,0,52,110.44,28.07,28.07,0,0,0,54.38,73.71Z"/><path class="cls-6" d="M54.38,73.71A28.32,28.32,0,0,0,24.54,63.25a40.59,40.59,0,0,0,27.25,47.34l0.16-.16A28.07,28.07,0,0,0,54.38,73.71Z"/></svg>