<?xml version="1.0" encoding="utf-8"?><svg version="1.0" id="Layer_1" xmlns="http://www.w3.org/2000/svg" xmlns:xlink="http://www.w3.org/1999/xlink" x="0px" y="0px" viewBox="0 0 128 128" style="enable-background:new 0 0 128 128;" xml:space="preserve">
<style type="text/css">.st0{fill:#88D4AC;}.st1{fill:#89B6D9;}.st2{fill:#D680B1;}.st3{fill:#3A86BF;}.st4{fill:#BA2B7D;}.st5{fill:#39B775;}</style>
<path class="st0" d="M87.1,17.8c-9.2-12.5-26.8-15.2-39.2-6c-9.3,6.9-13.5,18.8-10.5,30l0,0c4,15,19.3,23.9,34.2,19.9 c9.6-2.5,17.1-9.9,19.8-19.4l0,0C93.9,33.9,92.3,24.8,87.1,17.8z"/>
<path class="st1" d="M54.3,74.2c-9.2-12.7-26.9-15.5-39.5-6.4s-15.5,26.9-6.4,39.5s26.9,15.5,39.5,6.4c1.2-0.9,2.3-1.8,3.4-2.9 C61.2,101.1,62.5,85.5,54.3,74.2z"/>
<path class="st2" d="M119.2,74.3c-3.8-5.2-9.2-8.9-15.4-10.5c0.2,1,0.2,1,0,0c-15-4-30.4,5-34.3,19.9s5,30.4,19.9,34.3 c15,4,30.4-5,34.3-19.9C125.9,89.9,124.2,81.1,119.2,74.3z"/>
<path class="st3" d="M31.4,96.4c5,6.8,11.9,11.8,19.9,14.5c11.1-10.8,11.3-28.6,0.5-39.7c-7.1-7.2-17.5-10.1-27.3-7.5 C21.9,75.1,24.5,87.1,31.4,96.4z"/>
<path class="st4" d="M79.9,68.3c-12.5,9.1-15.2,26.5-6.2,39c1,1.3,2,2.5,3.2,3.7c19.7-6.6,31.3-26.9,26.8-47.2 C95.6,61.6,86.8,63.2,79.9,68.3z"/>
<path class="st5" d="M81.1,57c5-3.6,8.6-8.8,10.3-14.7c-14.3-13-35.8-14.1-51.3-2.6c-0.9,0.7-1.8,1.4-2.7,2.1 c4,14.9,19.4,23.8,34.3,19.8C75.1,60.7,78.3,59.1,81.1,57z"/>
</svg>
