<svg id="Layer_1" data-name="Layer 1" xmlns="http://www.w3.org/2000/svg" viewBox="0 0 24 24"><defs><style>.cls-1{fill:#d680b1;}.cls-2{fill:#ba2b7d;}.cls-3{fill:#88d4ac;}.cls-4{fill:#39b775;}.cls-5{fill:#89b6d9;}.cls-6{fill:#3a86bf;}</style></defs><title>grain</title><path class="cls-1" d="M13.23,15a5.45,5.45,0,1,0,6.37-3.08A5.45,5.45,0,0,0,13.23,15Z"/><path class="cls-2" d="M13.23,15a5.45,5.45,0,0,0,1.08,6,7.81,7.81,0,0,0,5.33-9.05h0A5.4,5.4,0,0,0,13.23,15Z"/><path class="cls-3" d="M12.63,11.66a5.45,5.45,0,1,0-5.85-4A5.45,5.45,0,0,0,12.63,11.66Z"/><path class="cls-4" d="M12.63,11.66a5.45,5.45,0,0,0,4.65-3.92,7.81,7.81,0,0,0-10.5-.11v0A5.4,5.4,0,0,0,12.63,11.66Z"/><path class="cls-5" d="M10.1,13.85a5.45,5.45,0,1,0-.47,7.06A5.4,5.4,0,0,0,10.1,13.85Z"/><path class="cls-6" d="M10.1,13.85a5.45,5.45,0,0,0-5.74-2,7.81,7.81,0,0,0,5.24,9.1l0,0A5.4,5.4,0,0,0,10.1,13.85Z"/></svg>