<svg id="Layer_1" data-name="Layer 1" xmlns="http://www.w3.org/2000/svg" viewBox="0 0 150 150"><defs><style>.cls-1{fill:#d680b1;}.cls-2{fill:#ba2b7d;}.cls-3{fill:#88d4ac;}.cls-4{fill:#39b775;}.cls-5{fill:#89b6d9;}.cls-6{fill:#3a86bf;}</style></defs><title>market</title><path class="cls-1" d="M82.41,91.1a32.32,32.32,0,1,0,37.81-18.28A32.32,32.32,0,0,0,82.41,91.1Z"/><path class="cls-2" d="M82.41,91.1a32.32,32.32,0,0,0,6.42,35.5,46.32,46.32,0,0,0,31.64-53.7l-0.25-.08A32,32,0,0,0,82.41,91.1Z"/><path class="cls-3" d="M78.87,71.44A32.32,32.32,0,1,0,44.18,47.77,32.32,32.32,0,0,0,78.87,71.44Z"/><path class="cls-4" d="M78.87,71.44a32.32,32.32,0,0,0,27.58-23.26,46.32,46.32,0,0,0-62.32-.67c0,0.08,0,.17.06,0.25A32,32,0,0,0,78.87,71.44Z"/><path class="cls-5" d="M63.83,84.44a32.32,32.32,0,1,0-2.76,41.9A32.32,32.32,0,0,0,63.83,84.44Z"/><path class="cls-6" d="M63.83,84.44a32.32,32.32,0,0,0-34-11.93,46.32,46.32,0,0,0,31.1,54l0.19-.18A32,32,0,0,0,63.83,84.44Z"/></svg>