<?xml version="1.0" encoding="utf-8"?>
<!-- Generator: Adobe Illustrator 19.2.1, SVG Export Plug-In . SVG Version: 6.00 Build 0)  -->
<svg version="1.0" id="Layer_1" xmlns="http://www.w3.org/2000/svg" xmlns:xlink="http://www.w3.org/1999/xlink" x="0px" y="0px"
	 viewBox="0 0 150 150" style="enable-background:new 0 0 150 150;" xml:space="preserve">
<style type="text/css">
	.st0{fill:#88D4AC;}
	.st1{fill:#89B6D9;}
	.st2{fill:#D680B1;}
	.st3{fill:#3A86BF;}
	.st4{fill:#BA2B7D;}
	.st5{fill:#39B775;}
</style>
<title>market</title>
<path class="st0" d="M102.1,20.6C91.5,6.1,71.2,3.1,56.7,13.7c-10.8,7.9-15.6,21.7-12.1,34.7l0,0c4.7,17.3,22.5,27.5,39.8,22.8
	c10.9-3,19.5-11.4,22.6-22.2l0,0C109.9,39.2,108.1,28.7,102.1,20.6z"/>
<path class="st1" d="M64.1,85.8c-10.6-14.6-31-17.9-45.7-7.3s-17.9,31-7.3,45.7s31,17.9,45.7,7.3c1.4-1,2.7-2.1,3.9-3.3
	C72.2,116.8,73.7,98.8,64.1,85.8z"/>
<path class="st2" d="M139.2,85.8c-4.4-6-10.7-10.2-17.8-12.1c0.2,1.1,0.2,1.1,0,0c-17.3-4.6-35.1,5.7-39.6,23.1s5.7,35.1,23.1,39.6
	s35.1-5.7,39.6-23.1C146.9,103.8,145,93.7,139.2,85.8z"/>
<path class="st3" d="M37.7,111.4c5.7,7.8,13.7,13.6,22.9,16.7c12.8-12.5,13-33,0.5-45.8C53,73.9,41,70.6,29.7,73.6
	C26.8,86.8,29.7,100.6,37.7,111.4z"/>
<path class="st4" d="M93.8,78.9c-14.4,10.5-17.6,30.6-7.2,45c1.1,1.5,2.3,3,3.7,4.3c22.7-7.6,36.1-31.1,31-54.5
	C111.8,71.1,101.7,73.1,93.8,78.9z"/>
<path class="st5" d="M95.2,65.9c5.7-4.2,9.9-10.2,11.9-17c-16.5-15-41.3-16.3-59.3-3c-1.1,0.8-2.1,1.6-3.1,2.5
	c4.7,17.3,22.5,27.5,39.7,22.8C88.3,70.1,91.9,68.3,95.2,65.9z"/>
</svg>
