<svg id="Layer_1" data-name="Layer 1" xmlns="http://www.w3.org/2000/svg" viewBox="0 0 128 128"><defs><style>.cls-1{fill:#88d4ac;}.cls-2{fill:#89b6d9;}.cls-3{fill:#d680b1;}.cls-4{fill:#3a86bf;}.cls-5{fill:#ba2b7d;}.cls-6{fill:#39b775;}</style></defs><title>appGrid</title><path class="cls-1" d="M87.11,17.79a28.07,28.07,0,0,0-49.7,24h0a28,28,0,0,0,54,.51h0A28,28,0,0,0,87.11,17.79Z"/><path class="cls-2" d="M54.25,74.24a28.32,28.32,0,1,0-3,36.68A28.07,28.07,0,0,0,54.25,74.24Z"/><path class="cls-3" d="M119.21,74.26a28,28,0,0,0-15.42-10.5q0.32,1.47,0,0A28.07,28.07,0,1,0,119.21,74.26Z"/><path class="cls-4" d="M31.39,96.45a40.41,40.41,0,0,0,19.86,14.46,28.05,28.05,0,0,0-26.8-47.18A40.5,40.5,0,0,0,31.39,96.45Z"/><path class="cls-5" d="M79.95,68.27a27.91,27.91,0,0,0-3,42.66,40.62,40.62,0,0,0,26.84-47.17A28,28,0,0,0,79.95,68.27Z"/><path class="cls-6" d="M81.12,57.05A27.92,27.92,0,0,0,91.4,42.33a40.62,40.62,0,0,0-51.34-2.64c-0.92.68-1.8,1.4-2.65,2.13A28,28,0,0,0,81.12,57.05Z"/></svg>