<svg id="Layer_1" data-name="Layer 1" xmlns="http://www.w3.org/2000/svg" viewBox="0 0 150 150"><defs><style>.cls-1{fill:#88d4ac;}.cls-2{fill:#89b6d9;}.cls-3{fill:#d680b1;}.cls-4{fill:#3a86bf;}.cls-5{fill:#ba2b7d;}.cls-6{fill:#39b775;}</style></defs><title>market</title><path class="cls-1" d="M102.08,20.57A32.43,32.43,0,0,0,44.67,48.32h0a32.4,32.4,0,0,0,62.37.59h0A32.35,32.35,0,0,0,102.08,20.57Z"/><path class="cls-2" d="M64.12,85.77a32.71,32.71,0,1,0-3.46,42.37A32.43,32.43,0,0,0,64.12,85.77Z"/><path class="cls-3" d="M139.16,85.8a32.29,32.29,0,0,0-17.82-12.12q0.37,1.7,0,0A32.43,32.43,0,1,0,139.16,85.8Z"/><path class="cls-4" d="M37.72,111.44a46.68,46.68,0,0,0,22.94,16.7,32.41,32.41,0,0,0-31-54.5A46.78,46.78,0,0,0,37.72,111.44Z"/><path class="cls-5" d="M93.81,78.88a32.24,32.24,0,0,0-3.47,49.29,46.92,46.92,0,0,0,31-54.49A32.37,32.37,0,0,0,93.81,78.88Z"/><path class="cls-6" d="M95.16,65.92a32.26,32.26,0,0,0,11.88-17,46.92,46.92,0,0,0-59.31-3.05c-1.07.78-2.08,1.61-3.06,2.46A32.38,32.38,0,0,0,95.16,65.92Z"/></svg>