<?xml version="1.0" encoding="UTF-8" standalone="no"?>
<svg xmlns="http://www.w3.org/2000/svg" xml:space="preserve" version="1.0" y="0px" x="0px" viewBox="0 0 128 128">
<path fill="#D680B1" d="m70.7 79.5c-6.3 14.3 0.2 31 14.6 37.3s31-0.2 37.3-14.6c6.3-14.3-0.2-31-14.6-37.3-1.4-0.6-2.7-1.1-4.2-1.5-13.5-3.5-27.6 3.3-33.1 16.1z"/>
<path fill="#ba2b7d" d="m70.7 79.5c-4.8 10.9-2.1766 23.1 5.6234 31.1 2.9-0.9 5.7766-2.2 8.5766-3.8 15.4-9.1 22.592-26.72 19.192-43.32-0.1-0.02734-0.0844-0.02734-0.19219-0.06094-13.6-3.499-27.7 3.281-33.2 16.081z"/>
<path fill="#88D4AC" d="m67.6 62.3c15.5-1.7 26.8-15.7 25.1-31.2-1.8-15.5-15.7-26.8-31.3-25.1-15.5 1.7-26.8 15.7-25.1 31.2 0.2 1.5 0.4 2.9 0.8 4.3 3.6 13.6 16.6 22.4 30.5 20.8z"/>
<path fill="#39b775" d="m67.6 62.3c11.8-1.3 21.1-9.6 24.2-20.4-2.3-2.1-4.8-4-7.5-5.5-15.5-8.8-34.505-6.23-47.205 5.07 0.03314 0.09448 0.02477 0.09369 0.04827 0.18733 3.557 13.501 16.557 22.243 30.457 20.643z"/>
<path fill="#89B6D9" d="m54.4 73.7c-9.4-12.5-27.1-15.1-39.7-5.7-12.5 9.3-15.1 27.1-5.7 39.6s27.1 15.1 39.6 5.7c1.2-0.9 2.3-1.9 3.3-2.9 9.9-9.9 10.9-25.6 2.5-36.7z"/>
<path fill="#3a86bf" d="m54.4 73.7c-7.1-9.5-18.996-13.261-29.796-10.461-0.7 3-1.004 6.061-0.904 9.261 0.3 17.9 12.026 32.77 28.126 37.97l0.20391-0.19609c9.7-9.8 10.77-25.47 2.37-36.57z"/>
</svg>
