<?xml version="1.0" standalone="no"?>
<!DOCTYPE svg PUBLIC "-//W3C//DTD SVG 20010904//EN"
 "http://www.w3.org/TR/2001/REC-SVG-20010904/DTD/svg10.dtd">
<svg version="1.0" xmlns="http://www.w3.org/2000/svg"
 width="700.000000pt" height="700.000000pt" viewBox="0 0 700.000000 700.000000"
 preserveAspectRatio="xMidYMid meet">
<metadata>
Created by potrace 1.11, written by Peter Selinger 2001-2013
</metadata>
<g transform="translate(0.000000,700.000000) scale(0.100000,-0.100000)"
fill="#000000" stroke="none">
<path d="M3335 6609 c-22 -5 -56 -11 -75 -14 -120 -18 -295 -76 -425 -142
-185 -93 -369 -239 -501 -399 -106 -128 -213 -323 -269 -489 -27 -80 -31 -95
-41 -149 -2 -16 -7 -32 -9 -35 -2 -4 -6 -27 -9 -51 -3 -25 -9 -58 -12 -75 -3
-16 -6 -95 -6 -175 0 -131 2 -169 16 -236 2 -12 7 -39 11 -60 8 -45 13 -69 15
-69 9 0 5 -38 -5 -41 -10 -4 -10 -13 1 -47 63 -199 183 -413 312 -558 63 -71
169 -173 205 -198 12 -8 36 -27 54 -42 58 -49 242 -151 348 -191 279 -107 540
-132 850 -83 58 9 279 69 335 91 266 104 568 370 731 644 82 136 156 318 174
425 64 379 20 732 -132 1053 -80 167 -153 269 -292 409 -201 203 -472 350
-756 410 -38 8 -79 17 -90 20 -35 9 -388 10 -430 2z"/>
<path d="M1465 3499 c-22 -4 -56 -10 -75 -14 -233 -40 -490 -161 -684 -320
-70 -57 -184 -171 -231 -230 -22 -27 -42 -52 -45 -55 -6 -6 -96 -148 -123
-195 -65 -112 -143 -338 -170 -495 -8 -46 -20 -204 -20 -265 1 -237 57 -471
166 -690 39 -79 130 -226 158 -255 8 -8 26 -31 41 -50 102 -134 296 -289 473
-378 233 -118 437 -166 700 -167 202 0 295 11 450 54 190 53 398 157 530 265
27 23 61 50 75 61 53 42 189 183 237 245 90 117 174 262 213 370 13 36 27 70
30 75 4 6 11 26 16 45 10 44 8 38 22 85 11 38 24 115 37 215 10 74 7 259 -5
350 -22 161 -65 315 -121 430 -16 33 -29 62 -29 65 0 10 -89 154 -131 212 -25
35 -84 103 -130 154 -249 269 -550 423 -944 484 -94 14 -370 17 -440 4z"/>
<path d="M5145 3493 c-16 -2 -59 -8 -95 -14 -36 -6 -78 -13 -95 -16 -61 -10
-243 -75 -330 -118 -322 -157 -596 -436 -746 -761 -51 -111 -97 -246 -113
-339 -3 -16 -11 -59 -18 -95 -16 -86 -15 -355 1 -450 53 -314 203 -623 406
-837 22 -24 45 -43 50 -43 6 0 38 -23 70 -51 160 -136 356 -244 569 -314 43
-14 93 -28 110 -31 17 -3 50 -9 73 -15 121 -27 421 -33 523 -10 30 6 71 14 90
17 132 21 364 122 523 228 80 53 249 209 323 296 40 48 124 173 161 240 63
114 146 331 159 415 3 22 9 58 14 80 60 276 10 636 -127 925 -90 189 -302 456
-451 567 -20 15 -39 30 -42 34 -5 5 -71 49 -115 76 -55 34 -149 79 -227 109
-90 34 -297 88 -383 100 -55 7 -282 12 -330 7z"/>
</g>
</svg>
