<?xml version="1.0" standalone="no"?>
<!DOCTYPE svg PUBLIC "-//W3C//DTD SVG 20010904//EN"
 "http://www.w3.org/TR/2001/REC-SVG-20010904/DTD/svg10.dtd">
<svg version="1.0" xmlns="http://www.w3.org/2000/svg"
 width="16.000000pt" height="16.000000pt" viewBox="0 0 16.000000 16.000000"
 preserveAspectRatio="xMidYMid meet">
<metadata>
Created by potrace 1.11, written by Peter Selinger 2001-2013
</metadata>
<g transform="translate(0.000000,16.000000) scale(0.002286,-0.002286)"
fill="#000000" stroke="none">
<path d="M3350 6670 c-25 -4 -67 -10 -95 -14 -76 -11 -240 -60 -338 -102 -241
-101 -489 -299 -648 -519 -129 -177 -239 -440 -273 -655 -7 -40 -20 -212 -20
-250 1 -44 14 -215 19 -240 3 -14 8 -38 11 -55 51 -288 203 -579 414 -793 226
-228 504 -374 835 -438 109 -21 380 -24 500 -5 507 78 935 391 1164 849 43 85
105 258 116 322 3 19 10 53 15 75 29 130 32 394 6 542 -44 248 -154 497 -311
699 -57 74 -241 249 -323 308 -184 131 -447 237 -672 271 -62 10 -345 13 -400
5z"/>
<path d="M1559 3585 c-2 -2 -22 -6 -44 -9 -217 -33 -450 -122 -635 -244 -47
-31 -87 -58 -90 -61 -3 -3 -32 -28 -65 -56 -55 -46 -123 -114 -175 -175 -12
-14 -29 -35 -39 -46 -119 -139 -242 -403 -291 -624 -38 -172 -45 -436 -16
-585 66 -338 209 -610 440 -840 329 -326 781 -486 1251 -441 39 4 77 9 85 11
8 2 29 7 45 10 59 10 77 14 163 41 242 73 457 206 652 403 249 250 395 552
434 900 12 100 12 298 2 357 -3 15 -8 48 -12 73 -27 197 -132 450 -261 632
-87 123 -274 308 -388 386 -273 185 -551 270 -885 271 -93 1 -169 -1 -171 -3z"/>
<path d="M5257 3583 c-1 -1 -33 -3 -71 -4 -133 -5 -323 -47 -470 -105 -430
-169 -751 -511 -901 -959 -265 -788 150 -1646 936 -1936 166 -60 321 -90 499
-94 158 -3 254 7 395 39 174 41 387 138 538 245 154 110 319 286 415 443 67
109 162 315 164 355 0 4 4 18 9 31 10 25 13 39 34 137 42 203 38 456 -11 649
-76 305 -222 558 -442 768 -130 124 -220 186 -397 272 -204 99 -368 143 -578
155 -65 3 -119 5 -120 4z"/>
</g>
</svg>
