<svg id="Layer_1" data-name="Layer 1" xmlns="http://www.w3.org/2000/svg" viewBox="0 0 24 24"><defs><style>.cls-1{fill:#88d4ac;}.cls-2{fill:#89b6d9;}.cls-3{fill:#d680b1;}.cls-4{fill:#3a86bf;}.cls-5{fill:#ba2b7d;}.cls-6{fill:#39b775;}</style></defs><title>grain</title><path class="cls-1" d="M16.36,3.51A5.31,5.31,0,0,0,6.95,8.06h0a5.31,5.31,0,0,0,10.22.1h0A5.3,5.3,0,0,0,16.36,3.51Z"/><path class="cls-2" d="M10.13,14.19a5.36,5.36,0,1,0-.57,6.94A5.31,5.31,0,0,0,10.13,14.19Z"/><path class="cls-3" d="M22.43,14.2a5.29,5.29,0,0,0-2.92-2q0.06,0.28,0,0A5.31,5.31,0,1,0,22.43,14.2Z"/><path class="cls-4" d="M5.81,18.4a7.65,7.65,0,0,0,3.76,2.74A5.31,5.31,0,0,0,4.49,12.2,7.67,7.67,0,0,0,5.81,18.4Z"/><path class="cls-5" d="M15,13.06a5.28,5.28,0,0,0-.57,8.08,7.69,7.69,0,0,0,5.08-8.93A5.3,5.3,0,0,0,15,13.06Z"/><path class="cls-6" d="M15.22,10.94a5.29,5.29,0,0,0,1.95-2.79,7.69,7.69,0,0,0-9.72-.5c-0.17.13-.34,0.26-0.5,0.4A5.31,5.31,0,0,0,15.22,10.94Z"/></svg>