<?xml version="1.0" encoding="utf-8"?><svg version="1.0" id="Layer_1" xmlns="http://www.w3.org/2000/svg" xmlns:xlink="http://www.w3.org/1999/xlink" x="0px" y="0px" viewBox="0 0 24 24" style="enable-background:new 0 0 24 24;" xml:space="preserve">
<style type="text/css">.st0{fill:#88D4AC;}.st1{fill:#89B6D9;}.st2{fill:#D680B1;}.st3{fill:#3A86BF;}.st4{fill:#BA2B7D;}.st5{fill:#39B775;}</style>
<path class="st0" d="M16.4,3.5c-1.7-2.4-5-2.9-7.4-1.2c-1.8,1.3-2.6,3.6-2,5.7l0,0c0.8,2.8,3.7,4.5,6.5,3.7c1.8-0.5,3.2-1.9,3.7-3.6 l0,0C17.6,6.6,17.3,4.8,16.4,3.5z"/>
<path class="st1" d="M10.1,14.2C8.4,11.8,5,11.2,2.6,13s-2.9,5.1-1.2,7.5s5.1,2.9,7.5,1.2c0.2-0.2,0.4-0.3,0.6-0.5 C11.5,19.3,11.7,16.3,10.1,14.2z"/>
<path class="st2" d="M22.4,14.2c-0.7-1-1.7-1.7-2.9-2c0,0.2,0,0.2,0,0c-2.8-0.8-5.7,0.9-6.5,3.8c-0.8,2.8,0.9,5.7,3.8,6.5 s5.7-0.9,6.5-3.8C23.7,17.1,23.4,15.5,22.4,14.2z"/>
<path class="st3" d="M5.8,18.4c0.9,1.3,2.3,2.2,3.8,2.7c2.1-2,2.2-5.4,0.1-7.5c-1.3-1.4-3.3-1.9-5.2-1.4C4,14.4,4.5,16.6,5.8,18.4z"/>
<path class="st4" d="M15,13.1c-2.4,1.7-2.9,5-1.2,7.4c0.2,0.3,0.4,0.5,0.6,0.7c3.7-1.2,5.9-5.1,5.1-8.9C18,11.8,16.3,12.1,15,13.1z"/>
<path class="st5" d="M15.2,10.9c0.9-0.7,1.6-1.7,1.9-2.8c-2.7-2.5-6.8-2.7-9.7-0.5C7.3,7.8,7.1,7.9,6.9,8c0.8,2.8,3.7,4.5,6.5,3.7 C14.1,11.6,14.7,11.3,15.2,10.9z"/>
</svg>
