<?xml version="1.0" encoding="utf-8"?>
<!-- Generator: Adobe Illustrator 19.2.1, SVG Export Plug-In . SVG Version: 6.00 Build 0)  -->
<svg version="1.0" id="Layer_1" xmlns="http://www.w3.org/2000/svg" xmlns:xlink="http://www.w3.org/1999/xlink" x="0px" y="0px"
	 viewBox="0 0 128 128" style="enable-background:new 0 0 128 128;" xml:space="preserve">
<style type="text/css">
	.st0{fill:#D680B1;}
	.st1{fill:#BA2B7D;}
	.st2{fill:#88D4AC;}
	.st3{fill:#39B775;}
	.st4{fill:#89B6D9;}
	.st5{fill:#3A86BF;}
</style>
<path class="st0" d="M70.7,79.5c-6.3,14.3,0.2,31,14.6,37.3s31-0.2,37.3-14.6c6.3-14.3-0.2-31-14.6-37.3c-1.4-0.6-2.7-1.1-4.2-1.5
	C90.3,59.9,76.2,66.7,70.7,79.5z"/>
<g>
	<path class="st1" d="M70.7,79.5c-4.8,10.9-2.2,23.1,5.6,31.1c2.9-0.9,5.8-2.2,8.6-3.8c15.4-9.1,22.6-26.7,19.2-43.3
		c-0.1,0-0.1,0-0.2-0.1C90.3,59.9,76.2,66.7,70.7,79.5z"/>
</g>
<path class="st2" d="M67.6,62.3c15.5-1.7,26.8-15.7,25.1-31.2C90.9,15.6,77,4.3,61.4,6C45.9,7.7,34.6,21.7,36.3,37.2
	c0.2,1.5,0.4,2.9,0.8,4.3C40.7,55.1,53.7,63.9,67.6,62.3z"/>
<g>
	<path class="st3" d="M67.6,62.3c11.8-1.3,21.1-9.6,24.2-20.4c-2.3-2.1-4.8-4-7.5-5.5c-15.5-8.8-34.4-6.3-47.1,5
		c0,0.1,0,0.1,0.1,0.2C40.7,55.1,53.7,63.9,67.6,62.3z"/>
</g>
<path class="st4" d="M54.4,73.7C45,61.2,27.3,58.6,14.7,68C2.2,77.3-0.4,95.1,9,107.6s27.1,15.1,39.6,5.7c1.2-0.9,2.3-1.9,3.3-2.9
	C61.8,100.5,62.8,84.8,54.4,73.7z"/>
<g>
	<path class="st5" d="M54.4,73.7c-7.1-9.5-19-13.3-29.8-10.5c-0.7,3-1,6.1-0.9,9.3c0.3,17.9,12.1,32.8,28.2,38
		c0.1-0.1,0.1-0.1,0.2-0.2C61.8,100.5,62.8,84.8,54.4,73.7z"/>
</g>
</svg>
