<?xml version="1.0" encoding="utf-8"?>
<!-- Generator: Adobe Illustrator 19.2.1, SVG Export Plug-In . SVG Version: 6.00 Build 0)  -->
<svg version="1.0" id="Layer_1" xmlns="http://www.w3.org/2000/svg" xmlns:xlink="http://www.w3.org/1999/xlink" x="0px" y="0px"
	 viewBox="0 0 24 24" style="enable-background:new 0 0 24 24;" xml:space="preserve">
<style type="text/css">
	.st0{fill:#D680B1;}
	.st1{fill:#BA2B7D;}
	.st2{fill:#88D4AC;}
	.st3{fill:#39B775;}
	.st4{fill:#89B6D9;}
	.st5{fill:#3A86BF;}
</style>
<path class="st0" d="M13.2,15c-1.2,2.8,0,6,2.8,7.2c2.8,1.2,6,0,7.2-2.8c1.2-2.8,0-6-2.8-7.2c-0.3-0.1-0.5-0.2-0.8-0.3
	C17,11.2,14.3,12.5,13.2,15z"/>
<g>
	<path class="st1" d="M13.2,15c-0.9,2.1-0.4,4.4,1.1,6c0.6-0.2,1.1-0.4,1.6-0.7c3-1.7,4.3-5.1,3.7-8.3c0,0,0,0,0,0
		C17,11.2,14.3,12.5,13.2,15z"/>
</g>
<path class="st2" d="M12.6,11.7c3-0.3,5.2-3,4.8-6s-3-5.2-6-4.8c-3,0.3-5.2,3-4.8,6c0,0.3,0.1,0.6,0.2,0.8C7.5,10.3,10,12,12.6,11.7
	z"/>
<g>
	<path class="st3" d="M12.6,11.7c2.3-0.2,4.1-1.9,4.6-3.9c-0.4-0.4-0.9-0.8-1.5-1.1c-3-1.7-6.6-1.2-9.1,1c0,0,0,0,0,0
		C7.5,10.3,10,12,12.6,11.7z"/>
</g>
<path class="st4" d="M10.1,13.8c-1.8-2.4-5.2-2.9-7.6-1.1s-2.9,5.2-1.1,7.6s5.2,2.9,7.6,1.1c0.2-0.2,0.4-0.4,0.6-0.6
	C11.5,19,11.7,16,10.1,13.8z"/>
<g>
	<path class="st5" d="M10.1,13.8c-1.4-1.8-3.7-2.6-5.7-2c-0.1,0.6-0.2,1.2-0.2,1.8c0.1,3.4,2.3,6.3,5.4,7.3c0,0,0,0,0,0
		C11.5,19,11.7,16,10.1,13.8z"/>
</g>
</svg>
