<?xml version="1.0" encoding="utf-8"?>
<!-- Generator: Adobe Illustrator 19.2.1, SVG Export Plug-In . SVG Version: 6.00 Build 0)  -->
<svg version="1.0" id="Layer_1" xmlns="http://www.w3.org/2000/svg" xmlns:xlink="http://www.w3.org/1999/xlink" x="0px" y="0px"
	 viewBox="0 0 150 150" style="enable-background:new 0 0 150 150;" xml:space="preserve">
<style type="text/css">
	.st0{fill:#D680B1;}
	.st1{fill:#BA2B7D;}
	.st2{fill:#88D4AC;}
	.st3{fill:#39B775;}
	.st4{fill:#89B6D9;}
	.st5{fill:#3A86BF;}
</style>
<path class="st0" d="M82.4,91.1c-7.2,16.3,0.3,35.4,16.6,42.6c16.3,7.2,35.4-0.3,42.6-16.6s-0.3-35.4-16.6-42.6
	c-1.5-0.7-3.1-1.2-4.8-1.7C104.8,68.6,88.7,76.4,82.4,91.1z"/>
<g>
	<path class="st1" d="M82.4,91.1c-5.4,12.4-2.5,26.4,6.4,35.5c3.3-1,6.6-2.5,9.8-4.3c17.6-10.3,25.8-30.5,21.9-49.4
		c-0.1,0-0.2-0.1-0.2-0.1C104.8,68.6,88.7,76.4,82.4,91.1z"/>
</g>
<path class="st2" d="M78.9,71.4c17.7-1.9,30.6-17.9,28.6-35.6C105.6,18.1,89.6,5.3,71.9,7.2C54.1,9.1,41.3,25.1,43.2,42.8
	c0.2,1.7,0.5,3.3,0.9,5C48.2,63.2,63,73.3,78.9,71.4z"/>
<g>
	<path class="st3" d="M78.9,71.4c13.5-1.5,24.1-11,27.6-23.3c-2.6-2.4-5.4-4.5-8.6-6.3c-17.7-10.1-39.3-7.2-53.7,5.7
		c0,0.1,0,0.2,0.1,0.3C48.2,63.2,63,73.3,78.9,71.4z"/>
</g>
<path class="st4" d="M63.8,84.4c-10.7-14.3-30.9-17.2-45.2-6.6S1.4,108.8,12,123.1s30.9,17.2,45.2,6.6c1.3-1,2.6-2.1,3.8-3.3
	C72.3,115,73.5,97.2,63.8,84.4z"/>
<g>
	<path class="st5" d="M63.8,84.4c-8.1-10.8-21.7-15.1-34-11.9c-0.7,3.4-1.1,7-1.1,10.6c0.3,20.4,13.8,37.5,32.2,43.4
		c0.1-0.1,0.1-0.1,0.2-0.2C72.3,115,73.5,97.2,63.8,84.4z"/>
</g>
</svg>
